<mxfile host="885e58f5-2f56-435b-8725-753c357b8cff" modified="2020-09-26T06:53:06.703Z" agent="5.0 (X11; Linux x86_64) AppleWebKit/537.36 (KHTML, like Gecko) Code/1.49.0 Chrome/83.0.4103.122 Electron/9.2.1 Safari/537.36" etag="AwAACLcbNvRwdCZkmHr6" version="13.1.3">
    <diagram id="6hGFLwfOUW9BJ-s0fimq" name="Page-1">
        <mxGraphModel dx="3910" dy="1268" grid="1" gridSize="10" guides="1" tooltips="1" connect="1" arrows="1" fold="1" page="1" pageScale="1" pageWidth="827" pageHeight="1169" math="0" shadow="0">
            <root>
                <mxCell id="0"/>
                <mxCell id="1" parent="0"/>
                <mxCell id="2" value="" style="group;fillColor=none;strokeColor=#FFFFFF;gradientColor=none;" vertex="1" connectable="0" parent="1">
                    <mxGeometry x="-460" y="510" width="2050" height="430" as="geometry"/>
                </mxCell>
                <mxCell id="3" value="" style="rounded=0;whiteSpace=wrap;html=1;fontStyle=1;fillColor=#7EA6E0;" vertex="1" parent="2">
                    <mxGeometry x="30" y="-170" width="2020" height="600" as="geometry"/>
                </mxCell>
                <mxCell id="4" value="" style="rounded=0;whiteSpace=wrap;html=1;fillColor=#9999FF;strokeColor=#333333;" vertex="1" parent="2">
                    <mxGeometry x="70" y="-10" width="265" height="185" as="geometry"/>
                </mxCell>
                <mxCell id="11" value="&lt;b&gt;&lt;span style=&quot;font-size: 20px&quot;&gt;&lt;span style=&quot;font-size: 20px&quot;&gt;S&lt;/span&gt;&lt;font style=&quot;font-size: 20px&quot;&gt;ervice&lt;br&gt;&lt;/font&gt;&lt;/span&gt;&lt;font style=&quot;font-size: 20px&quot;&gt;DB&lt;/font&gt;&lt;/b&gt;" style="shape=cylinder;whiteSpace=wrap;html=1;boundedLbl=1;backgroundOutline=1;fillColor=#FFFFFF;strokeColor=#666666;fontColor=#333333;" vertex="1" parent="2">
                    <mxGeometry x="1070" y="130" width="80" height="80" as="geometry"/>
                </mxCell>
                <mxCell id="12" value="" style="rounded=0;whiteSpace=wrap;html=1;fillColor=#647687;strokeColor=#314354;fontColor=#ffffff;" vertex="1" parent="2">
                    <mxGeometry x="1220" width="810" height="340" as="geometry"/>
                </mxCell>
                <mxCell id="13" value="" style="group" vertex="1" connectable="0" parent="2">
                    <mxGeometry x="1250" y="120" width="210" height="100" as="geometry"/>
                </mxCell>
                <mxCell id="14" value="" style="rounded=0;whiteSpace=wrap;html=1;fillColor=#FAD7AC;strokeColor=#d79b00;" vertex="1" parent="13">
                    <mxGeometry width="190" height="90" as="geometry"/>
                </mxCell>
                <mxCell id="15" value="&lt;font size=&quot;1&quot;&gt;&lt;b style=&quot;font-size: 16px&quot;&gt;Source Code Project&lt;/b&gt;&lt;/font&gt;" style="rounded=1;whiteSpace=wrap;html=1;fillColor=#FFFFFF;" vertex="1" parent="13">
                    <mxGeometry x="30" y="20" width="127.5" height="55" as="geometry"/>
                </mxCell>
                <mxCell id="16" value="&lt;font style=&quot;font-size: 20px&quot;&gt;&lt;b&gt;Page&lt;br&gt;DB&lt;/b&gt;&lt;/font&gt;" style="shape=cylinder;whiteSpace=wrap;html=1;boundedLbl=1;backgroundOutline=1;" vertex="1" parent="2">
                    <mxGeometry x="500" y="240" width="60" height="80" as="geometry"/>
                </mxCell>
                <mxCell id="17" value="" style="endArrow=classic;html=1;exitX=0;exitY=0.5;exitDx=0;exitDy=0;entryX=1;entryY=0.5;entryDx=0;entryDy=0;" edge="1" parent="2" source="16" target="4">
                    <mxGeometry width="50" height="50" relative="1" as="geometry">
                        <mxPoint x="270" y="-20" as="sourcePoint"/>
                        <mxPoint x="300" y="183.88999999999987" as="targetPoint"/>
                        <Array as="points">
                            <mxPoint x="450" y="280"/>
                            <mxPoint x="450" y="83"/>
                        </Array>
                    </mxGeometry>
                </mxCell>
                <mxCell id="18" value="" style="group" vertex="1" connectable="0" parent="2">
                    <mxGeometry x="1460" y="120" width="210" height="100" as="geometry"/>
                </mxCell>
                <mxCell id="19" value="" style="group" vertex="1" connectable="0" parent="18">
                    <mxGeometry width="210" height="100" as="geometry"/>
                </mxCell>
                <mxCell id="20" value="" style="rounded=0;whiteSpace=wrap;html=1;fillColor=#FAD7AC;strokeColor=#D79B00;" vertex="1" parent="19">
                    <mxGeometry width="190" height="90" as="geometry"/>
                </mxCell>
                <mxCell id="21" value="&lt;font size=&quot;1&quot;&gt;&lt;b style=&quot;font-size: 16px&quot;&gt;Source Code&lt;br&gt;Parser&lt;br&gt;&lt;/b&gt;&lt;/font&gt;" style="rounded=1;whiteSpace=wrap;html=1;fillColor=#FFFFFF;" vertex="1" parent="19">
                    <mxGeometry x="30" y="20" width="127.5" height="55" as="geometry"/>
                </mxCell>
                <mxCell id="22" value="&lt;meta http-equiv=&quot;content-type&quot; content=&quot;text/html; charset=utf-8&quot;&gt;&lt;img class=&quot;tile--img__img  js-lazyload&quot; src=&quot;https://external-content.duckduckgo.com/iu/?u=https%3A%2F%2Ftse3.mm.bing.net%2Fth%3Fid%3DOIP.guV1-gVdwZIkkeowOYIABAHaKO%26pid%3DApi&amp;amp;f=1&quot; data-src=&quot;//external-content.duckduckgo.com/iu/?u=https%3A%2F%2Ftse3.mm.bing.net%2Fth%3Fid%3DOIP.guV1-gVdwZIkkeowOYIABAHaKO%26pid%3DApi&amp;amp;f=1&quot; alt=&quot;Selenium, Jenkins, Robots, Oh My!&quot;&gt;" style="text;whiteSpace=wrap;html=1;" vertex="1" parent="2">
                    <mxGeometry x="1600" width="50" height="80" as="geometry"/>
                </mxCell>
                <mxCell id="23" value="&lt;b&gt;Class&lt;br&gt;Storage&lt;/b&gt;" style="shape=cylinder;whiteSpace=wrap;html=1;boundedLbl=1;backgroundOutline=1;fillColor=#FFFFFF;" vertex="1" parent="2">
                    <mxGeometry x="1250" y="250" width="60" height="80" as="geometry"/>
                </mxCell>
                <mxCell id="24" value="" style="endArrow=classic;html=1;exitX=0.25;exitY=1;exitDx=0;exitDy=0;entryX=0.5;entryY=0;entryDx=0;entryDy=0;" edge="1" parent="2" source="15" target="23">
                    <mxGeometry width="50" height="50" relative="1" as="geometry">
                        <mxPoint x="1140" y="20" as="sourcePoint"/>
                        <mxPoint x="1190" y="-30" as="targetPoint"/>
                        <Array as="points">
                            <mxPoint x="1312" y="230"/>
                            <mxPoint x="1280" y="230"/>
                        </Array>
                    </mxGeometry>
                </mxCell>
                <mxCell id="25" value="" style="endArrow=classic;html=1;exitX=0.5;exitY=0;exitDx=0;exitDy=0;entryX=0.5;entryY=0;entryDx=0;entryDy=0;" edge="1" parent="2" source="21" target="11">
                    <mxGeometry width="50" height="50" relative="1" as="geometry">
                        <mxPoint x="1140" y="20" as="sourcePoint"/>
                        <mxPoint x="1190" y="-30" as="targetPoint"/>
                        <Array as="points">
                            <mxPoint x="1554" y="80"/>
                            <mxPoint x="1110" y="80"/>
                        </Array>
                    </mxGeometry>
                </mxCell>
                <mxCell id="26" value="" style="group" vertex="1" connectable="0" parent="2">
                    <mxGeometry x="1460" y="240" width="210" height="100" as="geometry"/>
                </mxCell>
                <mxCell id="27" value="" style="group" vertex="1" connectable="0" parent="26">
                    <mxGeometry width="210" height="100" as="geometry"/>
                </mxCell>
                <mxCell id="28" value="" style="group" vertex="1" connectable="0" parent="27">
                    <mxGeometry width="210" height="100" as="geometry"/>
                </mxCell>
                <mxCell id="29" value="" style="rounded=0;whiteSpace=wrap;html=1;fillColor=#FAD7AC;strokeColor=#D79B00;" vertex="1" parent="28">
                    <mxGeometry width="190" height="90" as="geometry"/>
                </mxCell>
                <mxCell id="30" value="&lt;span style=&quot;font-size: 16px&quot;&gt;&lt;b&gt;Service Component Generator&lt;/b&gt;&lt;/span&gt;" style="rounded=1;whiteSpace=wrap;html=1;fillColor=#FFFFFF;" vertex="1" parent="28">
                    <mxGeometry x="30" y="20" width="127.5" height="55" as="geometry"/>
                </mxCell>
                <mxCell id="31" value="" style="endArrow=classic;html=1;exitX=0.5;exitY=1;exitDx=0;exitDy=0;entryX=0.5;entryY=0;entryDx=0;entryDy=0;" edge="1" parent="2" source="21" target="30">
                    <mxGeometry width="50" height="50" relative="1" as="geometry">
                        <mxPoint x="1360" y="20" as="sourcePoint"/>
                        <mxPoint x="1410" y="-30" as="targetPoint"/>
                    </mxGeometry>
                </mxCell>
                <mxCell id="32" value="" style="group" vertex="1" connectable="0" parent="2">
                    <mxGeometry x="1690" y="90" width="150" height="80" as="geometry"/>
                </mxCell>
                <mxCell id="33" value="" style="group" vertex="1" connectable="0" parent="32">
                    <mxGeometry width="150" height="80" as="geometry"/>
                </mxCell>
                <mxCell id="34" value="" style="rounded=0;whiteSpace=wrap;html=1;fillColor=#FAD7AC;strokeColor=#D79B00;" vertex="1" parent="33">
                    <mxGeometry width="135.7142857142857" height="72" as="geometry"/>
                </mxCell>
                <mxCell id="35" value="&lt;font size=&quot;1&quot;&gt;&lt;b style=&quot;font-size: 16px&quot;&gt;WSDL&lt;br&gt;Generator&lt;br&gt;&lt;/b&gt;&lt;/font&gt;" style="rounded=1;whiteSpace=wrap;html=1;fillColor=#FFFFFF;" vertex="1" parent="33">
                    <mxGeometry x="21.428571428571423" y="16" width="91.07142857142857" height="44" as="geometry"/>
                </mxCell>
                <mxCell id="36" value="&lt;b style=&quot;font-size: 13px&quot;&gt;Service Component API Storage&lt;br&gt;(Jar)&lt;br&gt;&lt;/b&gt;" style="shape=cylinder;whiteSpace=wrap;html=1;boundedLbl=1;backgroundOutline=1;fillColor=#FFFFFF;" vertex="1" parent="2">
                    <mxGeometry x="1710" y="240" width="90" height="95" as="geometry"/>
                </mxCell>
                <mxCell id="37" value="&lt;b&gt;WSDL&lt;br&gt;Storage&lt;br&gt;&lt;/b&gt;" style="shape=cylinder;whiteSpace=wrap;html=1;boundedLbl=1;backgroundOutline=1;fillColor=#FFFFFF;" vertex="1" parent="2">
                    <mxGeometry x="1860" y="88" width="60" height="80" as="geometry"/>
                </mxCell>
                <mxCell id="38" value="" style="endArrow=classic;html=1;exitX=1;exitY=0.5;exitDx=0;exitDy=0;entryX=0;entryY=0.5;entryDx=0;entryDy=0;" edge="1" parent="2" source="30" target="35">
                    <mxGeometry width="50" height="50" relative="1" as="geometry">
                        <mxPoint x="1360" y="20" as="sourcePoint"/>
                        <mxPoint x="1410" y="-30" as="targetPoint"/>
                        <Array as="points">
                            <mxPoint x="1670" y="288"/>
                            <mxPoint x="1670" y="128"/>
                        </Array>
                    </mxGeometry>
                </mxCell>
                <mxCell id="39" value="" style="endArrow=classic;html=1;exitX=1;exitY=0.5;exitDx=0;exitDy=0;entryX=0;entryY=0.5;entryDx=0;entryDy=0;" edge="1" parent="2" source="30" target="36">
                    <mxGeometry width="50" height="50" relative="1" as="geometry">
                        <mxPoint x="1360" y="20" as="sourcePoint"/>
                        <mxPoint x="1410" y="-30" as="targetPoint"/>
                    </mxGeometry>
                </mxCell>
                <mxCell id="40" value="" style="endArrow=classic;html=1;exitX=1;exitY=0.5;exitDx=0;exitDy=0;entryX=0;entryY=0.5;entryDx=0;entryDy=0;" edge="1" parent="2" source="35" target="37">
                    <mxGeometry width="50" height="50" relative="1" as="geometry">
                        <mxPoint x="1360" y="20" as="sourcePoint"/>
                        <mxPoint x="1410" y="-30" as="targetPoint"/>
                    </mxGeometry>
                </mxCell>
                <mxCell id="41" value="" style="group;fillColor=#fa6800;strokeColor=#C73500;fontColor=#ffffff;" vertex="1" connectable="0" parent="2">
                    <mxGeometry x="1860" y="210" width="150" height="80" as="geometry"/>
                </mxCell>
                <mxCell id="42" value="" style="group" vertex="1" connectable="0" parent="41">
                    <mxGeometry width="150" height="80" as="geometry"/>
                </mxCell>
                <mxCell id="43" value="" style="rounded=0;whiteSpace=wrap;html=1;fillColor=#fad7ac;strokeColor=#b46504;" vertex="1" parent="42">
                    <mxGeometry width="150" height="80" as="geometry"/>
                </mxCell>
                <mxCell id="44" value="&lt;font style=&quot;font-size: 18px&quot;&gt;&lt;b&gt;API Server&lt;/b&gt;&lt;/font&gt;" style="rounded=1;whiteSpace=wrap;html=1;fillColor=#FFFFFF;" vertex="1" parent="42">
                    <mxGeometry x="15" y="10" width="120" height="60" as="geometry"/>
                </mxCell>
                <mxCell id="45" value="" style="endArrow=classic;html=1;exitX=1;exitY=0.5;exitDx=0;exitDy=0;entryX=0;entryY=0.5;entryDx=0;entryDy=0;" edge="1" parent="2" source="36" target="44">
                    <mxGeometry width="50" height="50" relative="1" as="geometry">
                        <mxPoint x="1360" y="20" as="sourcePoint"/>
                        <mxPoint x="1410" y="-30" as="targetPoint"/>
                        <Array as="points">
                            <mxPoint x="1840" y="288"/>
                            <mxPoint x="1840" y="250"/>
                        </Array>
                    </mxGeometry>
                </mxCell>
                <mxCell id="46" value="&lt;font style=&quot;font-size: 23px&quot;&gt;Trigger Jenkins Build&lt;/font&gt;" style="text;html=1;strokeColor=none;fillColor=none;align=center;verticalAlign=middle;whiteSpace=wrap;rounded=0;strokeWidth=4;" vertex="1" parent="2">
                    <mxGeometry x="1390" y="-100" width="230" height="20" as="geometry"/>
                </mxCell>
                <mxCell id="47" value="&lt;span style=&quot;font-size: 23px&quot;&gt;Edit Source Code&lt;/span&gt;" style="text;html=1;strokeColor=none;fillColor=none;align=center;verticalAlign=middle;whiteSpace=wrap;rounded=0;strokeWidth=4;" vertex="1" parent="2">
                    <mxGeometry x="1350" y="380" width="200" height="20" as="geometry"/>
                </mxCell>
                <mxCell id="48" value="&lt;span style=&quot;font-size: 23px&quot;&gt;Get source code for online editor&lt;/span&gt;" style="text;html=1;strokeColor=none;fillColor=none;align=center;verticalAlign=middle;whiteSpace=wrap;rounded=0;strokeWidth=4;" vertex="1" parent="2">
                    <mxGeometry x="980" y="240" width="200" height="20" as="geometry"/>
                </mxCell>
                <mxCell id="49" value="&lt;span style=&quot;color: rgb(0 , 0 , 0) ; font-family: &amp;#34;helvetica&amp;#34; ; font-style: normal ; font-weight: 400 ; letter-spacing: normal ; text-align: center ; text-indent: 0px ; text-transform: none ; word-spacing: 0px ; float: none ; display: inline&quot;&gt;&lt;font style=&quot;font-size: 16px&quot;&gt;Save Source Code to DB after parsing Projects&lt;/font&gt;&lt;/span&gt;" style="text;whiteSpace=wrap;html=1;" vertex="1" parent="2">
                    <mxGeometry x="1230" y="40" width="340" height="30" as="geometry"/>
                </mxCell>
                <mxCell id="50" value="&lt;font style=&quot;font-size: 18px&quot;&gt;Send back ServiceComponents with Priority after Matchmaking&lt;/font&gt;" style="text;html=1;strokeColor=none;fillColor=none;align=center;verticalAlign=middle;whiteSpace=wrap;rounded=0;" vertex="1" parent="2">
                    <mxGeometry x="350" y="350" width="160" height="20" as="geometry"/>
                </mxCell>
                <mxCell id="52" value="" style="rounded=0;whiteSpace=wrap;html=1;fillColor=#9999FF;strokeColor=#333333;" vertex="1" parent="2">
                    <mxGeometry x="665" y="30" width="220" height="200" as="geometry"/>
                </mxCell>
                <mxCell id="81" value="" style="endArrow=classic;html=1;exitX=0.5;exitY=1;exitDx=0;exitDy=0;entryX=0.5;entryY=0;entryDx=0;entryDy=0;" edge="1" parent="2" source="52" target="22">
                    <mxGeometry width="50" height="50" relative="1" as="geometry">
                        <mxPoint x="670.2399999999998" y="345.55999999999995" as="sourcePoint"/>
                        <mxPoint x="1240" y="-30" as="targetPoint"/>
                        <Array as="points">
                            <mxPoint x="775" y="410"/>
                            <mxPoint x="1110" y="410"/>
                            <mxPoint x="1190" y="410"/>
                            <mxPoint x="1190" y="-70"/>
                            <mxPoint x="1625" y="-70"/>
                        </Array>
                    </mxGeometry>
                </mxCell>
                <mxCell id="79" value="" style="endArrow=classic;html=1;entryX=0.5;entryY=1;entryDx=0;entryDy=0;exitX=0.5;exitY=1;exitDx=0;exitDy=0;" edge="1" parent="2" source="52" target="15">
                    <mxGeometry width="50" height="50" relative="1" as="geometry">
                        <mxPoint x="670.2399999999998" y="345.55999999999995" as="sourcePoint"/>
                        <mxPoint x="820" y="220" as="targetPoint"/>
                        <Array as="points">
                            <mxPoint x="775" y="410"/>
                            <mxPoint x="1010" y="410"/>
                            <mxPoint x="1345" y="410"/>
                        </Array>
                    </mxGeometry>
                </mxCell>
                <mxCell id="74" value="" style="endArrow=classic;html=1;exitX=0;exitY=0.5;exitDx=0;exitDy=0;entryX=1;entryY=0.5;entryDx=0;entryDy=0;" edge="1" parent="2" source="52" target="16">
                    <mxGeometry width="50" height="50" relative="1" as="geometry">
                        <mxPoint x="550.4699999999998" y="183.88999999999987" as="sourcePoint"/>
                        <mxPoint x="830" y="-30" as="targetPoint"/>
                        <Array as="points">
                            <mxPoint x="600" y="130"/>
                            <mxPoint x="600" y="280"/>
                        </Array>
                    </mxGeometry>
                </mxCell>
                <mxCell id="78" value="&lt;font style=&quot;font-size: 42px&quot;&gt;&lt;b&gt;Docker Container&lt;/b&gt;&lt;/font&gt;" style="text;html=1;strokeColor=none;fillColor=none;align=center;verticalAlign=middle;whiteSpace=wrap;rounded=0;" vertex="1" parent="2">
                    <mxGeometry x="790" y="-140" width="370" height="20" as="geometry"/>
                </mxCell>
                <mxCell id="75" value="&lt;font style=&quot;font-size: 18px&quot; color=&quot;#333333&quot;&gt;&lt;b&gt;Angular Web App&lt;/b&gt;&lt;/font&gt;" style="rounded=0;whiteSpace=wrap;html=1;fillColor=#9999FF;strokeColor=#333333;fontColor=#ffffff;" vertex="1" parent="2">
                    <mxGeometry x="122.5" y="320" width="160" height="80" as="geometry"/>
                </mxCell>
                <mxCell id="121" value="" style="endArrow=classic;html=1;exitX=0.5;exitY=1;exitDx=0;exitDy=0;entryX=0.5;entryY=0;entryDx=0;entryDy=0;" edge="1" parent="2" source="4" target="75">
                    <mxGeometry width="50" height="50" relative="1" as="geometry">
                        <mxPoint x="590" y="-30" as="sourcePoint"/>
                        <mxPoint x="640" y="-80" as="targetPoint"/>
                    </mxGeometry>
                </mxCell>
                <mxCell id="138" value="&lt;font style=&quot;font-size: 20px&quot;&gt;&lt;b&gt;UI-Design-Server&lt;/b&gt;&lt;/font&gt;" style="rounded=1;whiteSpace=wrap;html=1;strokeColor=#333333;fillColor=#ffffff;gradientColor=none;" vertex="1" parent="2">
                    <mxGeometry x="681.25" y="85" width="187.5" height="90" as="geometry"/>
                </mxCell>
                <mxCell id="140" value="&lt;font style=&quot;font-size: 20px&quot;&gt;&lt;b&gt;UI-Composition-Engine&lt;/b&gt;&lt;/font&gt;" style="rounded=1;whiteSpace=wrap;html=1;strokeColor=#333333;fillColor=#ffffff;gradientColor=none;" vertex="1" parent="2">
                    <mxGeometry x="82.5" y="50" width="240" height="90" as="geometry"/>
                </mxCell>
                <mxCell id="82" value="" style="group" vertex="1" connectable="0" parent="1">
                    <mxGeometry x="890" y="190" width="190" height="120" as="geometry"/>
                </mxCell>
                <mxCell id="83" value="" style="group" vertex="1" connectable="0" parent="82">
                    <mxGeometry width="190" height="120" as="geometry"/>
                </mxCell>
                <mxCell id="84" value="" style="rounded=0;whiteSpace=wrap;html=1;fillColor=#ffcccc;strokeColor=#36393d;" vertex="1" parent="83">
                    <mxGeometry width="171.90476190476187" height="108" as="geometry"/>
                </mxCell>
                <mxCell id="85" value="&lt;font size=&quot;1&quot;&gt;&lt;b style=&quot;font-size: 16px&quot;&gt;Auto-Fix&lt;br&gt;&lt;/b&gt;&lt;/font&gt;" style="rounded=1;whiteSpace=wrap;html=1;fillColor=#FFFFFF;" vertex="1" parent="83">
                    <mxGeometry x="27.142857142857135" y="24" width="115.35714285714285" height="66" as="geometry"/>
                </mxCell>
                <mxCell id="86" value="" style="group" vertex="1" connectable="0" parent="1">
                    <mxGeometry x="-360" y="180" width="190" height="120" as="geometry"/>
                </mxCell>
                <mxCell id="87" value="" style="group" vertex="1" connectable="0" parent="86">
                    <mxGeometry width="190" height="120" as="geometry"/>
                </mxCell>
                <mxCell id="88" value="" style="rounded=0;whiteSpace=wrap;html=1;fillColor=#9999FF;strokeColor=#36393d;" vertex="1" parent="87">
                    <mxGeometry width="171.90476190476187" height="108" as="geometry"/>
                </mxCell>
                <mxCell id="89" value="&lt;font size=&quot;1&quot;&gt;&lt;b style=&quot;font-size: 16px&quot;&gt;Matchmaking&lt;br&gt;&lt;/b&gt;&lt;/font&gt;" style="rounded=1;whiteSpace=wrap;html=1;fillColor=#FFFFFF;arcSize=17;" vertex="1" parent="87">
                    <mxGeometry x="27.142857142857135" y="24" width="115.35714285714285" height="66" as="geometry"/>
                </mxCell>
                <mxCell id="90" value="" style="endArrow=classic;startArrow=classic;html=1;entryX=0;entryY=0.5;entryDx=0;entryDy=0;exitX=0;exitY=0.5;exitDx=0;exitDy=0;fillColor=#ffcccc;strokeColor=#36393d;strokeWidth=2;" edge="1" parent="1" source="15" target="85">
                    <mxGeometry width="50" height="50" relative="1" as="geometry">
                        <mxPoint x="320" y="520" as="sourcePoint"/>
                        <mxPoint x="370" y="470" as="targetPoint"/>
                        <Array as="points">
                            <mxPoint x="710" y="678"/>
                            <mxPoint x="710" y="247"/>
                        </Array>
                    </mxGeometry>
                </mxCell>
                <mxCell id="91" value="&lt;font style=&quot;font-size: 22px&quot;&gt;&lt;b&gt;If build source code project failed ,&lt;br&gt;send to Auto-Fix&lt;/b&gt;&lt;/font&gt;" style="text;html=1;strokeColor=none;fillColor=none;align=center;verticalAlign=middle;whiteSpace=wrap;rounded=0;" vertex="1" parent="1">
                    <mxGeometry x="680" y="100" width="190" height="160" as="geometry"/>
                </mxCell>
                <mxCell id="92" value="&lt;font style=&quot;font-size: 21px&quot;&gt;&lt;b&gt;Send target wsdl and wsdls (filtered after query stage1)&amp;nbsp;&lt;/b&gt;&lt;/font&gt;" style="text;html=1;strokeColor=none;fillColor=none;align=center;verticalAlign=middle;whiteSpace=wrap;rounded=0;" vertex="1" parent="1">
                    <mxGeometry x="-150" y="140" width="160" height="20" as="geometry"/>
                </mxCell>
                <mxCell id="93" value="" style="endArrow=classic;startArrow=classic;html=1;strokeColor=#333333;strokeWidth=2;exitX=1;exitY=0.5;exitDx=0;exitDy=0;entryX=0;entryY=0.25;entryDx=0;entryDy=0;" edge="1" parent="1" source="88" target="52">
                    <mxGeometry width="50" height="50" relative="1" as="geometry">
                        <mxPoint x="270" y="510" as="sourcePoint"/>
                        <mxPoint x="129.01999999999998" y="820.56" as="targetPoint"/>
                        <Array as="points">
                            <mxPoint x="10" y="234"/>
                            <mxPoint x="10" y="590"/>
                        </Array>
                    </mxGeometry>
                </mxCell>
                <mxCell id="120" value="" style="rounded=0;whiteSpace=wrap;html=1;fillColor=#9999FF;strokeColor=#333333;" vertex="1" parent="1">
                    <mxGeometry x="207.5" y="150" width="215" height="150" as="geometry"/>
                </mxCell>
                <mxCell id="122" value="" style="endArrow=classic;startArrow=classic;html=1;entryX=0.5;entryY=1;entryDx=0;entryDy=0;exitX=0.5;exitY=0;exitDx=0;exitDy=0;" edge="1" parent="1" source="52" target="120">
                    <mxGeometry width="50" height="50" relative="1" as="geometry">
                        <mxPoint x="550" y="620" as="sourcePoint"/>
                        <mxPoint x="600" y="570" as="targetPoint"/>
                    </mxGeometry>
                </mxCell>
                <mxCell id="130" value="" style="group;fillColor=#f8cecc;strokeColor=#b85450;" vertex="1" connectable="0" parent="1">
                    <mxGeometry x="440" y="1060" width="310" height="160" as="geometry"/>
                </mxCell>
                <mxCell id="127" value="" style="rounded=0;whiteSpace=wrap;html=1;strokeColor=#b85450;fillColor=#f8cecc;" vertex="1" parent="130">
                    <mxGeometry width="310" height="160" as="geometry"/>
                </mxCell>
                <mxCell id="128" value="&lt;font style=&quot;font-size: 20px&quot;&gt;&lt;b&gt;BPEL Engine&lt;/b&gt;&lt;/font&gt;" style="rounded=1;whiteSpace=wrap;html=1;strokeColor=#333333;fillColor=#ffffff;gradientColor=none;" vertex="1" parent="130">
                    <mxGeometry x="61.25" y="35" width="187.5" height="90" as="geometry"/>
                </mxCell>
                <mxCell id="131" value="" style="endArrow=classic;startArrow=classic;html=1;entryX=0.5;entryY=1;entryDx=0;entryDy=0;exitX=0;exitY=0.5;exitDx=0;exitDy=0;" edge="1" parent="1" source="128" target="75">
                    <mxGeometry width="50" height="50" relative="1" as="geometry">
                        <mxPoint x="450" y="1080" as="sourcePoint"/>
                        <mxPoint x="500" y="1030" as="targetPoint"/>
                        <Array as="points">
                            <mxPoint x="-257" y="1140"/>
                        </Array>
                    </mxGeometry>
                </mxCell>
                <mxCell id="132" value="" style="endArrow=classic;startArrow=none;html=1;entryX=1;entryY=0.5;entryDx=0;entryDy=0;exitX=1;exitY=0.5;exitDx=0;exitDy=0;startFill=0;" edge="1" parent="1" source="128" target="37">
                    <mxGeometry width="50" height="50" relative="1" as="geometry">
                        <mxPoint x="990" y="1080" as="sourcePoint"/>
                        <mxPoint x="1040" y="1030" as="targetPoint"/>
                        <Array as="points">
                            <mxPoint x="1670" y="1140"/>
                            <mxPoint x="1670" y="638"/>
                        </Array>
                    </mxGeometry>
                </mxCell>
                <mxCell id="139" value="&lt;font style=&quot;font-size: 20px&quot;&gt;&lt;b&gt;UI-Design-Client&lt;/b&gt;&lt;/font&gt;" style="rounded=1;whiteSpace=wrap;html=1;strokeColor=#333333;fillColor=#ffffff;gradientColor=none;" vertex="1" parent="1">
                    <mxGeometry x="221.25" y="180" width="187.5" height="90" as="geometry"/>
                </mxCell>
                <mxCell id="143" value="&lt;font style=&quot;font-size: 22px&quot;&gt;&lt;b&gt;Communication Using WebSocket&lt;/b&gt;&lt;/font&gt;" style="text;html=1;strokeColor=none;fillColor=none;align=center;verticalAlign=middle;whiteSpace=wrap;rounded=0;" vertex="1" parent="1">
                    <mxGeometry x="-180" y="1110" width="400" height="20" as="geometry"/>
                </mxCell>
                <mxCell id="144" value="" style="endArrow=classic;startArrow=classic;html=1;exitX=0.5;exitY=0;exitDx=0;exitDy=0;entryX=0.5;entryY=1;entryDx=0;entryDy=0;" edge="1" parent="1" source="128" target="44">
                    <mxGeometry width="50" height="50" relative="1" as="geometry">
                        <mxPoint x="1100" y="800" as="sourcePoint"/>
                        <mxPoint x="1150" y="750" as="targetPoint"/>
                        <Array as="points">
                            <mxPoint x="595" y="990"/>
                            <mxPoint x="1475" y="990"/>
                        </Array>
                    </mxGeometry>
                </mxCell>
                <mxCell id="145" value="&lt;font style=&quot;font-size: 22px&quot;&gt;&lt;b&gt;Communication Using RESTFul API&lt;/b&gt;&lt;/font&gt;" style="text;html=1;strokeColor=none;fillColor=none;align=center;verticalAlign=middle;whiteSpace=wrap;rounded=0;" vertex="1" parent="1">
                    <mxGeometry x="690" y="960" width="400" height="20" as="geometry"/>
                </mxCell>
                <mxCell id="150" value="&lt;b&gt;&lt;font style=&quot;font-size: 20px&quot;&gt;BPEL Storage&lt;/font&gt;&lt;br&gt;&lt;/b&gt;" style="shape=cylinder;whiteSpace=wrap;html=1;boundedLbl=1;backgroundOutline=1;fillColor=#FFFFFF;" vertex="1" parent="1">
                    <mxGeometry x="900" y="1260" width="92.5" height="100" as="geometry"/>
                </mxCell>
                <mxCell id="152" value="" style="endArrow=classic;html=1;exitX=0.5;exitY=1;exitDx=0;exitDy=0;entryX=0;entryY=0.5;entryDx=0;entryDy=0;" edge="1" parent="1" source="128" target="150">
                    <mxGeometry width="50" height="50" relative="1" as="geometry">
                        <mxPoint x="1010" y="1190" as="sourcePoint"/>
                        <mxPoint x="1060" y="1140" as="targetPoint"/>
                        <Array as="points">
                            <mxPoint x="595" y="1310"/>
                        </Array>
                    </mxGeometry>
                </mxCell>
                <mxCell id="155" value="&lt;font size=&quot;1&quot;&gt;&lt;b style=&quot;font-size: 39px&quot;&gt;Requirement&lt;/b&gt;&lt;/font&gt;" style="rounded=0;whiteSpace=wrap;html=1;strokeColor=#333333;fillColor=#FFFFFF;gradientColor=none;" vertex="1" parent="1">
                    <mxGeometry x="-480" y="1320" width="290" height="160" as="geometry"/>
                </mxCell>
                <mxCell id="156" value="&lt;font style=&quot;font-size: 20px&quot;&gt;&lt;b&gt;Usecae Storage&lt;/b&gt;&lt;/font&gt;" style="shape=cylinder;whiteSpace=wrap;html=1;boundedLbl=1;backgroundOutline=1;strokeColor=#333333;fillColor=#FFFFFF;gradientColor=none;" vertex="1" parent="1">
                    <mxGeometry x="110" y="1340" width="170" height="120" as="geometry"/>
                </mxCell>
                <mxCell id="157" value="" style="endArrow=classic;html=1;exitX=1;exitY=0.5;exitDx=0;exitDy=0;entryX=0;entryY=0.5;entryDx=0;entryDy=0;" edge="1" parent="1" source="155" target="156">
                    <mxGeometry width="50" height="50" relative="1" as="geometry">
                        <mxPoint x="660" y="1200" as="sourcePoint"/>
                        <mxPoint x="710" y="1150" as="targetPoint"/>
                    </mxGeometry>
                </mxCell>
                <mxCell id="158" value="&lt;font size=&quot;1&quot;&gt;&lt;b style=&quot;font-size: 35px&quot;&gt;Handwrite&lt;/b&gt;&lt;/font&gt;" style="text;html=1;strokeColor=none;fillColor=none;align=center;verticalAlign=middle;whiteSpace=wrap;rounded=0;" vertex="1" parent="1">
                    <mxGeometry x="-90" y="1340" width="140" height="40" as="geometry"/>
                </mxCell>
                <mxCell id="163" value="" style="group" vertex="1" connectable="0" parent="1">
                    <mxGeometry x="460" y="1390" width="210" height="160" as="geometry"/>
                </mxCell>
                <mxCell id="162" value="" style="group" vertex="1" connectable="0" parent="163">
                    <mxGeometry width="210" height="160" as="geometry"/>
                </mxCell>
                <mxCell id="159" value="" style="rounded=0;whiteSpace=wrap;html=1;fillColor=#999999;strokeColor=#666666;fontColor=#333333;" vertex="1" parent="162">
                    <mxGeometry width="210" height="160" as="geometry"/>
                </mxCell>
                <mxCell id="160" value="&lt;span style=&quot;font-size: 20px&quot;&gt;&lt;b&gt;NLP Project&lt;/b&gt;&lt;/span&gt;" style="rounded=1;whiteSpace=wrap;html=1;strokeColor=#333333;fillColor=#ffffff;gradientColor=none;" vertex="1" parent="162">
                    <mxGeometry x="11.25" y="35" width="187.5" height="90" as="geometry"/>
                </mxCell>
                <mxCell id="164" value="" style="endArrow=classic;html=1;exitX=1;exitY=0.5;exitDx=0;exitDy=0;entryX=0;entryY=0.5;entryDx=0;entryDy=0;" edge="1" parent="1" source="156" target="160">
                    <mxGeometry width="50" height="50" relative="1" as="geometry">
                        <mxPoint x="660" y="1200" as="sourcePoint"/>
                        <mxPoint x="710" y="1150" as="targetPoint"/>
                        <Array as="points">
                            <mxPoint x="410" y="1400"/>
                            <mxPoint x="410" y="1470"/>
                        </Array>
                    </mxGeometry>
                </mxCell>
                <mxCell id="165" value="" style="group;fillColor=#f8cecc;strokeColor=#b85450;" vertex="1" connectable="0" parent="1">
                    <mxGeometry x="1086" y="1390" width="310" height="160" as="geometry"/>
                </mxCell>
                <mxCell id="166" value="" style="rounded=0;whiteSpace=wrap;html=1;strokeColor=#b85450;fillColor=#f8cecc;" vertex="1" parent="165">
                    <mxGeometry width="310" height="160" as="geometry"/>
                </mxCell>
                <mxCell id="167" value="&lt;font style=&quot;font-size: 20px&quot;&gt;&lt;b&gt;BPEL Generator&lt;/b&gt;&lt;/font&gt;" style="rounded=1;whiteSpace=wrap;html=1;strokeColor=#333333;fillColor=#ffffff;gradientColor=none;" vertex="1" parent="165">
                    <mxGeometry x="61.25" y="35" width="187.5" height="90" as="geometry"/>
                </mxCell>
                <mxCell id="168" value="" style="endArrow=classic;html=1;exitX=1;exitY=0.5;exitDx=0;exitDy=0;entryX=0;entryY=0.5;entryDx=0;entryDy=0;" edge="1" parent="1" source="160" target="167">
                    <mxGeometry width="50" height="50" relative="1" as="geometry">
                        <mxPoint x="630" y="990" as="sourcePoint"/>
                        <mxPoint x="680" y="940" as="targetPoint"/>
                    </mxGeometry>
                </mxCell>
                <mxCell id="169" value="" style="endArrow=classic;html=1;exitX=0.5;exitY=0;exitDx=0;exitDy=0;entryX=1;entryY=0.5;entryDx=0;entryDy=0;" edge="1" parent="1" source="167" target="150">
                    <mxGeometry width="50" height="50" relative="1" as="geometry">
                        <mxPoint x="630" y="990" as="sourcePoint"/>
                        <mxPoint x="680" y="940" as="targetPoint"/>
                        <Array as="points">
                            <mxPoint x="1241" y="1310"/>
                        </Array>
                    </mxGeometry>
                </mxCell>
            </root>
        </mxGraphModel>
    </diagram>
</mxfile>